<?xml version="1.0" encoding="UTF-8" standalone="no"?>
<svg
   version="1.1"
   width="142.51758"
   height="48.10384"
   viewBox="0 0 5656.1621 1909.1167"
   id="svg1"
   sodipodi:docname="eXamc logos.svg"
   xml:space="preserve"
   inkscape:version="1.4.4 (dcaf3e7d9e, 2026-05-05)"
   inkscape:export-filename="eXamc-staging.svg"
   inkscape:export-xdpi="96"
   inkscape:export-ydpi="96"
   xmlns:inkscape="http://www.inkscape.org/namespaces/inkscape"
   xmlns:sodipodi="http://sodipodi.sourceforge.net/DTD/sodipodi-0.dtd"
   xmlns="http://www.w3.org/2000/svg"
   xmlns:svg="http://www.w3.org/2000/svg"><sodipodi:namedview
     id="namedview1"
     pagecolor="#000000"
     bordercolor="#ffffff"
     borderopacity="0.57647059"
     inkscape:showpageshadow="false"
     inkscape:pageopacity="0.0"
     inkscape:pagecheckerboard="true"
     inkscape:deskcolor="#000000"
     inkscape:document-units="px"
     inkscape:zoom="8.0000001"
     inkscape:cx="67.999999"
     inkscape:cy="15.9375"
     inkscape:window-width="3440"
     inkscape:window-height="1366"
     inkscape:window-x="0"
     inkscape:window-y="0"
     inkscape:window-maximized="1"
     inkscape:current-layer="g5"
     showgrid="false"
     showborder="true"><inkscape:page
       x="0"
       y="0"
       width="5656.1621"
       height="1909.1167"
       id="page1"
       margin="0"
       bleed="0"
       inkscape:export-filename="./eXamc-staging.svg"
       inkscape:export-xdpi="96"
       inkscape:export-ydpi="96"
       inkscape:label="eXamc" /><inkscape:page
       x="6014.0083"
       y="-10.800083"
       width="2857.4978"
       height="2857.4934"
       id="page2"
       margin="0"
       bleed="0"
       inkscape:label="eXamc-square" /></sodipodi:namedview><defs
     id="defs1"><rect
       x="82.625"
       y="0.75"
       width="41.5"
       height="14.625"
       id="rect8" /><inkscape:perspective
       sodipodi:type="inkscape:persp3d"
       inkscape:vp_x="0 : 2119.9208 : 1"
       inkscape:vp_y="0 : 999.99999 : 0"
       inkscape:vp_z="744.09446 : 2119.9208 : 1"
       inkscape:persp3d-origin="372.04723 : 1944.5271 : 1"
       id="perspective10" /><rect
       x="82.625"
       y="0.75"
       width="66.287674"
       height="16.615978"
       id="rect9" /><rect
       x="82.625"
       y="0.75"
       width="66.287674"
       height="16.615978"
       id="rect10" /><rect
       x="82.625"
       y="0.75"
       width="66.287674"
       height="16.615978"
       id="rect11" /><rect
       x="82.625"
       y="0.75"
       width="66.287674"
       height="16.615978"
       id="rect4" /><rect
       x="82.625"
       y="0.75"
       width="66.287674"
       height="16.615978"
       id="rect6" /><rect
       x="82.625"
       y="0.75"
       width="66.287674"
       height="16.615978"
       id="rect7" /><rect
       x="82.625"
       y="0.75"
       width="66.287674"
       height="16.615978"
       id="rect1" /><rect
       x="82.625"
       y="0.75"
       width="66.287674"
       height="16.615978"
       id="rect5" /><rect
       x="82.625"
       y="0.75"
       width="66.287674"
       height="16.615978"
       id="rect12" /><rect
       x="82.625"
       y="0.75"
       width="66.287674"
       height="16.615978"
       id="rect13" /></defs><g
     inkscape:groupmode="layer"
     id="layer3"
     inkscape:label="Logo carré"
     transform="translate(-49.260513,-30.643834)"><g
       id="g837-9"
       transform="matrix(15.008781,0,0,15.008781,1585.1986,-10149.642)"
       inkscape:label="Logo AMC"><rect
         style="fill:none;fill-opacity:1;stroke:#707070;stroke-width:10;stroke-linejoin:round;stroke-miterlimit:4;stroke-dasharray:none;stroke-opacity:1"
         id="rect2383-3"
         width="94.285713"
         height="94.285713"
         x="382.14285"
         y="694.14789" /><path
         style="fill:#ff0000;fill-opacity:1;fill-rule:evenodd;stroke:none;stroke-width:1px;stroke-linecap:butt;stroke-linejoin:miter;stroke-opacity:1"
         d="m 444.64286,680.57647 c -0.0946,31.15343 -40.70814,67.37842 -63.21429,94.64286 -2.51093,4.70427 -7.06847,9.39259 -6.78571,16.42857 9.10045,-9.32548 77.47366,-59.13589 88.21428,-106.42858 -4.24469,-3.21946 -11.87767,-4.51899 -18.21428,-4.64285 z"
         id="path3155-6"
         sodipodi:nodetypes="ccccc" /><path
         style="fill:#ff0000;fill-opacity:1;fill-rule:evenodd;stroke:none;stroke-width:1px;stroke-linecap:butt;stroke-linejoin:miter;stroke-opacity:1"
         d="m 394.64286,700.57647 c -7.83666,1.07259 -12.6218,16.17228 -11.07143,23.92857 32.34291,11.73447 54.12743,36.79523 87.5,80.35714 3.63397,-1.36217 2.5657,-9.14659 1.42857,-12.85714 -16.62738,-33.01638 -49.66377,-78.09958 -77.85714,-91.42857 z"
         id="path3157-0"
         sodipodi:nodetypes="ccccc" /></g><g
       id="g8"
       inkscape:label="&quot;amc&quot;"
       transform="translate(2772.7813,735.45734)"><path
         id="text2-2"
         style="font-size:203.318px;font-family:'Courier New';-inkscape-font-specification:'Courier New';letter-spacing:-8.73124px;display:inline;fill:#707070;stroke-width:178.137"
         inkscape:label="&quot;c&quot;"
         d="m 5649.2227,1241.4197 c -124.5811,0 -228.2693,41.3913 -310.5054,123.6272 -81.6221,82.2358 -122.1898,185.9242 -122.1898,310.5055 0,122.1263 39.534,222.8178 119.3145,302.5992 80.3952,79.1673 183.0496,118.5958 307.6308,118.5958 122.7396,0 234.1908,-32.8046 334.2248,-98.4705 61.9835,-40.5045 92.7196,-73.5192 92.7196,-99.9082 0,-10.4329 -3.417,-19.1246 -10.7814,-25.8755 -6.7505,-7.3644 -15.4426,-11.5001 -25.8751,-11.5001 -9.8189,0 -20.894,6.4137 -33.7821,18.6877 -50.3233,49.0961 -107.0299,85.0024 -169.6276,107.0958 -61.9837,22.0933 -123.1419,33.063 -183.285,33.063 -104.3289,0 -188.7756,-32.6993 -254.4413,-97.7519 -65.6659,-65.0522 -99.1893,-147.9397 -99.1893,-247.9729 0,-92.6688 30.3159,-174.7326 89.8452,-246.5355 59.5292,-71.8029 146.1483,-107.8144 260.9109,-107.8144 90.8279,0 162.9548,19.6616 216.3474,58.9385 54.0058,39.2768 83.2876,80.7731 86.9698,124.3459 1.2278,16.57 4.7502,28.5738 11.5008,35.938 7.3644,6.7509 16.8798,10.0629 27.3124,10.0629 11.6603,0 20.5631,-3.5222 27.3135,-11.5003 7.3642,-7.9781 11.6047,-21.9447 12.2186,-40.9695 v -174.6592 c 0,-19.0247 -4.1357,-32.2726 -11.4999,-40.2507 -7.3645,-7.9782 -16.3719,-12.219 -28.0322,-12.219 -11.0465,0 -20.6667,4.2408 -28.0311,12.219 -7.3643,7.9781 -10.7821,21.226 -10.7821,40.2507 v 25.8754 c -80.3946,-70.5755 -179.8414,-106.3769 -298.286,-106.3769 z"
         sodipodi:nodetypes="scscscscsccssssscccsccssssscs" /><path
         d="m 3791.4072,1241.4198 c -49.0958,0 -122.0481,13.0378 -217.785,38.8132 -60.7559,15.9563 -94.9097,28.889 -103.5017,38.0945 -6.1376,6.137 -9.3441,14.005 -9.3441,24.4378 0,11.0468 3.3123,20.6674 10.0626,28.0318 7.3643,7.3644 16.0565,10.7815 25.8752,10.7815 5.5237,0 17.7377,-3.2069 37.3761,-9.3439 108.625,-34.981 193.5806,-52.4698 253.7228,-52.4698 78.5538,0 136.8201,16.1397 176.097,47.4385 39.2769,31.2986 58.9385,67.6252 58.9385,109.9706 v 125.7833 c -48.4819,-9.8192 -93.3956,-17.267 -135.1269,-21.5629 -41.7323,-4.9096 -80.1264,-7.1874 -115.7213,-7.1874 -131.9455,0 -232.4271,27.5295 -301.1614,83.3764 -68.734,55.8467 -102.783,121.3506 -102.783,196.2221 0,68.1209 25.4616,125.9667 77.6264,173.2219 52.165,46.6412 125.1164,69.72 217.785,69.72 127.6496,0 247.0741,-47.0865 359.3812,-141.5963 v 111.4082 h 181.8471 c 19.0255,0 32.2733,-3.4171 40.2514,-10.7815 7.9783,-7.3643 12.2186,-16.985 12.2186,-28.0319 0,-11.6601 -4.2403,-20.562 -12.2186,-27.3127 -7.9781,-7.3644 -21.2259,-11.5003 -40.2514,-11.5003 H 4101.1938 V 1477.174 c 0,-60.7565 -27.319,-114.5717 -81.9393,-162.4404 -54.6193,-48.4822 -130.2689,-73.3138 -227.8473,-73.3138 z m -11.5001,409.6947 c 44.7999,0 87.4354,2.9969 127.9399,7.9063 40.5037,4.9096 78.793,12.5676 115.0016,23.0005 v 170.3466 c -60.756,58.3014 -119.8465,100.9369 -177.5342,127.9398 -57.0739,26.3892 -118.5476,39.5319 -185.4411,39.5319 -69.9618,0 -123.462,-16.2445 -160.2835,-48.157 -36.2086,-31.9124 -54.6259,-71.2358 -54.6259,-117.8771 0,-50.3234 24.0076,-93.1689 71.8758,-129.3773 63.2112,-48.4822 150.7604,-73.3137 263.0674,-73.3137 z"
         style="font-size:203.318px;font-family:'Courier New';-inkscape-font-specification:'Courier New';letter-spacing:-8.73124px;display:inline;fill:#707070;stroke-width:178.137"
         id="path1-5"
         inkscape:label="&quot;a&quot;" /><path
         d="m 4360.6577,1269.3904 v 78.2467 q 98.4984,-105.8633 197.9183,-105.8633 59.8362,0 104.9428,32.2192 45.1066,31.2988 75.4853,95.7373 51.5504,-64.4385 104.0222,-95.7373 53.3917,-32.2192 106.7833,-32.2192 83.7706,0 133.4802,54.3125 65.359,69.9618 65.359,152.8114 v 540.3635 h 65.3597 q 27.6167,0 39.5829,11.0466 11.9673,10.126 11.9673,27.6166 0,16.5699 -11.9673,27.6166 -11.9662,11.0466 -39.5829,11.0466 h -142.6859 v -610.3255 q 0,-58.9152 -35.9008,-97.5784 -35.9018,-38.663 -82.8499,-38.663 -42.3452,0 -89.2933,32.2192 -46.9483,31.2988 -106.7843,124.2743 v 512.747 h 64.4391 q 27.6156,0 39.5829,11.0466 11.9671,10.126 11.9671,27.6166 0,16.5699 -11.9671,27.6166 -11.9673,11.0466 -39.5829,11.0466 h -142.6861 v -604.8022 q 0,-61.6768 -36.8216,-101.2606 -35.9016,-40.5041 -81.0092,-40.5041 -41.4244,0 -81.9281,26.6959 -56.154,37.7426 -117.8307,129.7976 v 512.747 h 65.3589 q 27.6166,0 39.5839,11.0466 11.9672,10.126 11.9672,27.6166 0,16.5699 -11.9672,27.6166 -11.9673,11.0466 -39.5839,11.0466 h -208.0449 q -27.6167,0 -39.5829,-11.0466 -11.9673,-11.0467 -11.9673,-27.6166 0,-17.4906 11.9673,-27.6166 11.9662,-11.0466 39.5829,-11.0466 h 65.3599 v -641.6241 h -65.3599 q -27.6167,0 -39.5829,-11.0465 -11.9673,-11.0466 -11.9673,-28.5372 0,-16.5698 11.9673,-27.6164 11.9662,-11.0466 39.5829,-11.0466 z"
         id="text3-6"
         style="font-size:203.318px;font-family:'Courier New';-inkscape-font-specification:'Courier New';letter-spacing:-8.73124px;display:inline;fill:#4a4a4a;stroke-width:178.137"
         inkscape:label="&quot;m&quot;"
         aria-label="m" /></g><path
       d="m 6616.4571,611.64897 c -122.7398,0 -226.3231,40.35738 -309.7869,120.75223 -82.849,80.39474 -124.3457,176.63521 -124.3457,288.9424 0,123.3539 44.5985,229.1101 132.971,316.2556 88.9865,86.5319 199.5096,129.3774 332.068,129.3774 79.1676,0 156.5707,-13.1429 231.4416,-39.5321 75.4855,-27.0029 127.9517,-55.5665 157.409,-86.2516 9.8196,-9.8192 14.3753,-19.755 14.3753,-30.188 0,-10.4329 -3.4169,-19.9485 -10.7812,-27.3131 -7.3644,-7.9781 -16.0566,-11.5001 -25.8753,-11.5001 -8.592,0 -18.5274,4.4509 -30.188,13.6566 -39.8908,31.2986 -92.0416,56.4453 -155.2531,75.4699 -63.2114,19.0249 -123.4398,28.7505 -181.1283,28.7505 -103.715,0 -191.0538,-30.5264 -261.6295,-91.2827 -69.9618,-61.3702 -111.5624,-142.1897 -125.0642,-242.2231 h 788.4824 c 1.2276,-131.33178 -39.1297,-238.33213 -120.7517,-320.56798 -81.623,-82.84952 -185.5207,-124.34595 -311.9434,-124.34595 z m 0,78.34513 c 90.2141,0 167.8267,27.10953 232.8787,80.5014 65.6667,53.39204 106.1286,122.41816 121.4711,207.72229 h -708.7001 c 15.9565,-86.53172 56.4195,-156.38155 121.4715,-209.15971 65.0518,-52.77835 142.6646,-79.06398 232.8788,-79.06398 z"
       style="font-size:203.318px;font-family:'Courier New';-inkscape-font-specification:'Courier New';letter-spacing:-8.73124px;display:inline;fill:#707070;stroke-width:178.137"
       id="path1"
       inkscape:label="&quot;e&quot;" /></g><g
     inkscape:groupmode="layer"
     id="layer2"
     inkscape:label="Logo large"
     transform="translate(-49.260513,-30.643834)"><g
       id="g837"
       transform="matrix(15.360734,0,0,15.360734,-4807.2547,-10423.512)"
       inkscape:label="Logo AMC"><rect
         style="fill:none;fill-opacity:1;stroke:#707070;stroke-width:10;stroke-linejoin:round;stroke-miterlimit:4;stroke-dasharray:none;stroke-opacity:1"
         id="rect2383"
         width="94.285713"
         height="94.285713"
         x="382.14285"
         y="694.14789" /><path
         style="fill:#ff0000;fill-opacity:1;fill-rule:evenodd;stroke:none;stroke-width:1px;stroke-linecap:butt;stroke-linejoin:miter;stroke-opacity:1"
         d="m 444.64286,680.57647 c -0.0946,31.15343 -40.70814,67.37842 -63.21429,94.64286 -2.51093,4.70427 -7.06847,9.39259 -6.78571,16.42857 9.10045,-9.32548 77.47366,-59.13589 88.21428,-106.42858 -4.24469,-3.21946 -11.87767,-4.51899 -18.21428,-4.64285 z"
         id="path3155"
         sodipodi:nodetypes="ccccc" /><path
         style="fill:#ff0000;fill-opacity:1;fill-rule:evenodd;stroke:none;stroke-width:1px;stroke-linecap:butt;stroke-linejoin:miter;stroke-opacity:1"
         d="m 394.64286,700.57647 c -7.83666,1.07259 -12.6218,16.17228 -11.07143,23.92857 32.34291,11.73447 54.12743,36.79523 87.5,80.35714 3.63397,-1.36217 2.5657,-9.14659 1.42857,-12.85714 -16.62738,-33.01638 -49.66377,-78.09958 -77.85714,-91.42857 z"
         id="path3157"
         sodipodi:nodetypes="ccccc" /></g><g
       inkscape:groupmode="layer"
       id="g4"
       inkscape:label="Lettres &quot;e&quot; et &quot;amc&quot;"
       style="display:inline"><path
         id="text2"
         style="font-size:203.318px;font-family:'Courier New';-inkscape-font-specification:'Courier New';letter-spacing:-8.73124px;fill:#707070;stroke-width:182.315"
         inkscape:label="&quot;a&quot; et &quot;c&quot;"
         d="m 493.57328,642.85616 c -125.6179,0 -231.6303,41.30373 -317.05119,123.5837 -84.791703,82.28007 -127.261577,180.7774 -127.261577,295.71824 0,126.2467 45.644296,234.4826 136.089217,323.672 91.07317,88.5602 204.18698,132.4109 339.85484,132.4109 81.02415,0 160.24235,-13.4512 236.86881,-40.4589 77.25565,-27.636 130.95226,-56.8701 161.10025,-88.2746 10.04996,-10.049 14.71242,-20.2185 14.71242,-30.8958 0,-10.6773 -3.49708,-20.4159 -11.03408,-27.9529 -7.537,-8.1653 -16.43297,-11.7706 -26.48198,-11.7706 -8.79348,0 -18.96207,4.5553 -30.89581,13.977 -40.8262,32.0327 -94.20014,57.7688 -158.89381,77.2395 -64.69368,19.4707 -126.3344,29.4249 -185.3758,29.4249 -106.14716,0 -195.53395,-31.2422 -267.76462,-93.4229 C 185.83752,1283.2968 143.26041,1200.5824 129.4429,1098.2033 H 936.4151 C 937.67158,963.79173 896.36803,854.28224 812.83186,770.11802 729.29475,685.32556 622.96063,642.85616 493.57328,642.85616 Z m 2595.99382,0 c -50.247,0 -124.91,13.34348 -222.8919,39.72336 -62.1807,16.33038 -97.1354,29.56634 -105.9289,38.98769 -6.2814,6.28089 -9.5631,14.33348 -9.5631,25.01102 0,11.30559 3.3898,21.152 10.2986,28.68909 7.537,7.53709 16.433,11.03427 26.482,11.03427 5.6532,0 18.1535,-3.28213 38.2525,-9.56303 111.1721,-35.80131 198.12,-53.70011 259.6724,-53.70011 80.3959,0 140.0286,16.51809 180.2265,48.55072 40.198,32.03271 60.3207,69.21112 60.3207,112.54953 v 128.733 c -49.6187,-10.0495 -95.5857,-17.67189 -138.2957,-22.06854 -42.7109,-5.0247 -82.0054,-7.35612 -118.4349,-7.35612 -135.0396,0 -237.8776,28.17516 -308.2235,85.33156 -70.346,57.156 -105.1934,124.1966 -105.1934,200.8231 0,69.7186 26.0587,128.9214 79.4469,177.2846 53.3882,47.7349 128.0502,71.3547 222.8919,71.3547 130.6428,0 252.868,-48.1905 367.8087,-144.9169 v 114.0211 h 186.1113 c 19.4707,0 33.0291,-3.4971 41.1944,-11.035 8.1652,-7.537 12.506,-17.383 12.506,-28.6885 0,-11.9337 -4.3408,-21.0442 -12.506,-27.9539 -8.1653,-7.537 -21.7237,-11.7695 -41.1944,-11.7695 H 3406.6183 V 884.1387 c 0,-62.18109 -27.9606,-117.2584 -83.8608,-166.24955 -55.9002,-49.6193 -133.3238,-75.03299 -233.1904,-75.03299 z m 2184.7842,0 c -127.5026,0 -233.6232,42.36187 -317.7876,126.52619 -83.5362,84.16431 -125.0542,190.28405 -125.0542,317.78675 0,124.9902 40.4599,228.0427 122.1122,309.6951 82.2797,81.0232 187.3412,121.3768 314.8439,121.3768 125.6188,0 239.6835,-33.5739 342.0622,-100.7796 63.4372,-41.4544 94.8948,-75.2428 94.8948,-102.2505 0,-10.6783 -3.4971,-19.5733 -11.0341,-26.483 -6.9088,-7.537 -15.8047,-11.7695 -26.482,-11.7695 -10.0499,0 -21.3849,6.5642 -34.5741,19.1262 -51.5035,50.247 -109.5408,86.9953 -173.6063,109.6063 -63.4372,22.6119 -126.0288,33.8387 -187.5822,33.8387 -106.7754,0 -193.2022,-33.4658 -260.4089,-100.0441 -67.2057,-66.5775 -101.5151,-151.4091 -101.5151,-253.7876 0,-94.84188 31.0278,-178.83006 91.9529,-252.31683 60.9243,-73.48678 149.5756,-110.34262 267.0282,-110.34262 92.9579,0 166.7772,20.1228 221.4209,60.32066 55.2729,40.19786 85.2416,82.66726 89.0101,127.26176 1.2565,16.95853 4.8608,29.24378 11.7695,36.78087 7.538,6.90905 17.2767,10.2987 27.9539,10.2987 11.9338,0 21.0442,-3.6047 27.953,-11.76994 7.537,-8.16514 11.8777,-22.45934 12.506,-41.93017 V 725.24536 c 0,-19.47093 -4.2326,-33.02946 -11.7696,-41.1946 -7.537,-8.16524 -16.7556,-12.50552 -28.6894,-12.50552 -11.3055,0 -21.1524,4.34028 -28.6893,12.50552 -7.537,8.16514 -11.0341,21.72367 -11.0341,41.1946 v 26.48217 C 5497.3523,679.49696 5395.5724,642.85616 5274.3513,642.85616 Z M 493.57328,723.03845 c 92.32965,0 171.76232,27.7452 238.33977,82.3892 67.20664,54.64399 108.61742,125.28869 124.31966,212.59335 H 130.91386 c 16.33047,-88.56086 57.74221,-160.04875 124.31966,-214.06459 66.57744,-54.01595 146.01011,-80.91796 238.33976,-80.91796 z M 3077.7975,1062.1581 c 45.8502,0 89.4855,3.0671 130.9399,8.0918 41.4535,5.0247 80.6408,12.8621 117.6985,23.5398 v 174.341 c -62.1807,59.6687 -122.657,103.304 -181.6975,130.9399 -58.4122,27.0078 -121.3274,40.459 -189.7896,40.459 -71.6024,0 -126.3572,-16.6257 -164.0422,-49.2866 -37.0577,-32.66 -55.9068,-72.9054 -55.9068,-120.6413 0,-51.5035 24.5707,-95.3532 73.5612,-132.4109 64.6937,-49.619 154.2959,-75.0327 269.2365,-75.0327 z" /><path
         d="m 3817.1626,671.48261 v 80.0817 q 100.809,-108.34582 202.5604,-108.34582 61.2383,0 107.4036,32.97479 46.1644,32.03272 77.2547,97.9823 52.76,-65.94958 106.4623,-97.9823 54.6437,-32.97479 109.2874,-32.97479 85.735,0 136.6102,55.58607 66.8916,71.60252 66.8916,156.39489 v 553.03475 h 66.8915 q 28.2643,0 40.5121,11.3055 12.2479,10.3641 12.2479,28.2642 0,16.9588 -12.2479,28.2643 -12.2478,11.3055 -40.5121,11.3055 h -146.031 V 862.73654 q 0,-60.29683 -36.7435,-99.86655 -36.7436,-39.56981 -84.7927,-39.56981 -43.3382,0 -91.3873,32.9748 -48.0491,32.03271 -109.2874,127.18859 v 524.77063 h 65.9492 q 28.2642,0 40.5121,11.3055 12.2478,10.3641 12.2478,28.2642 0,16.9588 -12.2478,28.2643 -12.2479,11.3055 -40.5121,11.3055 h -146.031 V 868.38939 q 0,-63.12326 -37.6859,-103.63515 -36.7436,-41.45406 -82.908,-41.45406 -42.3958,0 -83.8502,27.32195 -57.4699,38.62773 -120.5939,132.84144 v 524.77063 h 66.8925 q 28.2633,0 40.5111,11.3055 12.2479,10.3641 12.2479,28.2642 0,16.9588 -12.2479,28.2643 -12.2478,11.3055 -40.5111,11.3055 h -212.9235 q -28.2642,0 -40.5121,-11.3055 -12.2478,-11.3055 -12.2478,-28.2643 0,-17.9001 12.2478,-28.2642 12.2479,-11.3055 40.5121,-11.3055 h 66.8916 V 751.56431 h -66.8916 q -28.2642,0 -40.5121,-11.30569 -12.2478,-11.30559 -12.2478,-29.2062 0,-16.95853 12.2478,-28.26412 12.2479,-11.30569 40.5121,-11.30569 z"
         id="text3"
         style="font-size:203.318px;font-family:'Courier New';-inkscape-font-specification:'Courier New';letter-spacing:-8.73124px;fill:#4a4a4a;stroke-width:182.315"
         inkscape:label="&quot;m&quot;"
         aria-label="m" /></g><g
       inkscape:groupmode="layer"
       id="layer4"
       inkscape:label="Variantes"
       style="display:inline"><g
         id="g3"
         transform="matrix(1.152136,0,0,1.152136,-441.08627,-1568.7588)"
         inkscape:label="Staging"
         style="display:none;fill:#ffff00"><text
           xml:space="preserve"
           transform="matrix(52.430234,0,0,52.430234,-2513.0972,1274.1716)"
           id="text4"
           style="font-size:9.76098px;font-family:'Courier New';-inkscape-font-specification:'Courier New';letter-spacing:-0.22px;writing-mode:lr-tb;direction:ltr;white-space:pre;shape-inside:url(#rect4);display:none;fill:#ffff00;fill-opacity:1;stroke:none;stroke-width:1.13386"
           inkscape:label="Staging"><tspan
             x="109.22932"
             y="9.4351008"
             id="tspan2"><tspan
               style="font-style:italic;font-weight:bold;-inkscape-font-specification:'Courier New Bold Italic';direction:rtl"
               id="tspan1">Staging</tspan></tspan></text><path
           style="font-style:italic;font-weight:bold;font-size:9.76098px;font-family:'Courier New';-inkscape-font-specification:'Courier New Bold Italic';letter-spacing:-0.22px;direction:rtl;white-space:pre;display:inline;stroke-width:1.13386"
           d="m 110.77831,9.1872634 q -0.15729,0.1525153 -0.24784,0.1954103 -0.0906,0.042895 -0.20494,0.042895 -0.17635,0 -0.28597,-0.1048543 -0.10962,-0.1048543 -0.10962,-0.2573696 0,-0.090556 0.0429,-0.2859662 l 0.13822,-0.6577222 q 0.0763,-0.3526917 0.24307,-0.5004409 0.16682,-0.1525153 0.39082,-0.1525153 0.17635,0 0.27167,0.090556 0.0953,0.090556 0.10962,0.3050306 0.0191,0.2144746 0.0763,0.2954984 0.11439,0.1477492 0.42895,0.2954984 0.31933,0.1477492 0.72921,0.1477492 0.58623,0 1.04854,-0.2478374 0.46708,-0.2526034 0.46708,-0.6243595 0,-0.1525153 -0.10962,-0.2859662 -0.10485,-0.1334509 -0.36222,-0.228773 -0.15728,-0.057193 -0.815,-0.185878 -0.65773,-0.1286848 -0.99612,-0.2954984 -0.33363,-0.1668136 -0.52427,-0.462312 -0.19065,-0.3002645 -0.19065,-0.6767867 0,-0.8960274 0.79118,-1.4870242 0.79594,-0.595763 1.72533,-0.595763 0.37652,0 0.67678,0.08579 0.30503,0.081024 0.53381,0.2526035 0.23354,-0.1858781 0.41941,-0.1858781 0.17158,0 0.2812,0.1048543 0.11439,0.1048543 0.11439,0.2526035 0,0.095322 -0.0429,0.2907323 l -0.15729,0.7339799 q -0.0763,0.3526917 -0.24307,0.505207 -0.16681,0.1477492 -0.38129,0.1477492 -0.20494,0 -0.31456,-0.1286848 -0.062,-0.081024 -0.0667,-0.3145628 0,-0.2335391 -0.0572,-0.3431595 -0.10009,-0.1763458 -0.35269,-0.3002645 -0.24784,-0.1239187 -0.61006,-0.1239187 -0.591,0 -1.00565,0.3288612 -0.30979,0.2478373 -0.30979,0.5385696 0,0.2621357 0.21924,0.4194171 0.15728,0.1191526 0.71968,0.2383052 0.93892,0.1954102 1.22965,0.3145628 0.40989,0.1668136 0.6196,0.4670781 0.2097,0.2954985 0.2097,0.6720206 0,0.5242714 -0.29073,1.0056478 -0.29073,0.4766104 -0.94845,0.7911732 -0.65296,0.3145628 -1.406,0.3145628 -0.40512,0 -0.76735,-0.1000882 -0.36222,-0.095322 -0.68631,-0.2907323 z m 7.37716,-3.1027333 -0.41941,1.9588685 q -0.0286,0.1477492 -0.0286,0.2430713 0,0.1286848 0.11439,0.2049424 0.19064,0.1239187 0.62912,0.1239187 0.75305,0 1.45843,-0.3193289 0.27167,-0.1239187 0.40989,-0.1239187 0.16204,0 0.2669,0.1096204 0.10485,0.1048543 0.10485,0.276434 0,0.2240068 -0.17634,0.3908205 -0.25261,0.2383051 -1.00565,0.4432476 -0.74828,0.2001763 -1.29638,0.2001763 -0.45278,0 -0.86267,-0.1525153 -0.30026,-0.1096204 -0.48137,-0.3479255 -0.18111,-0.2383052 -0.18111,-0.5481019 0,-0.1572814 0.0334,-0.3097967 l 0.45754,-2.1495127 h -0.35745 q -0.3241,0 -0.44325,-0.1000881 -0.11439,-0.1048543 -0.11439,-0.2859662 0,-0.2907323 0.27644,-0.4861426 0.14775,-0.1048542 0.4909,-0.1048542 h 0.3527 l 0.19064,-0.8817292 q 0.0715,-0.3526916 0.23831,-0.5004408 0.17158,-0.1525153 0.39082,-0.1525153 0.16681,0 0.27643,0.1096204 0.11439,0.1048542 0.11439,0.2478373 0,0.1000882 -0.0429,0.2954984 l -0.19064,0.8817292 h 1.80635 q 0.32886,0 0.44325,0.1048542 0.11915,0.1000882 0.11915,0.2859662 0,0.2812001 -0.27167,0.4766104 -0.15251,0.1096203 -0.49567,0.1096203 z m 6.15229,3.3505707 0.0477,-0.228773 q -0.81501,0.3860544 -1.72533,0.3860544 -0.67679,0 -1.07714,-0.3431594 -0.40036,-0.3431595 -0.40036,-0.781641 0,-0.3574577 0.27644,-0.7530443 0.37175,-0.5338036 1.01995,-0.829302 0.65295,-0.2954984 1.44412,-0.2954984 0.43849,0 1.00089,0.095322 l 0.0477,-0.2335391 q 0.01,-0.047661 0.01,-0.095322 0,-0.1763458 -0.13822,-0.2716679 -0.18111,-0.1286847 -0.67202,-0.1286847 -0.44801,0 -1.15816,0.1715797 -0.2669,0.061959 -0.41942,0.061959 -0.15728,0 -0.26213,-0.1048543 -0.10486,-0.1048542 -0.10486,-0.2764339 0,-0.2383052 0.15252,-0.3908205 0.15251,-0.1572814 0.83406,-0.2954984 0.68632,-0.1429831 1.17723,-0.1429831 0.80071,0 1.19629,0.3336272 0.40036,0.3288611 0.40036,0.8054715 0,0.1525153 -0.0334,0.3288611 l -0.42894,2.0112956 h 0.16681 q 0.32886,0 0.44325,0.1000882 0.11438,0.1000882 0.11438,0.2859662 0,0.2954984 -0.2812,0.4909086 -0.14775,0.1000882 -0.48137,0.1000882 z m 0.37175,-1.7491599 q -0.55763,-0.1143865 -1.05807,-0.1143865 -0.64819,0 -1.17246,0.3479255 -0.30027,0.1954103 -0.30027,0.3717561 0,0.1429831 0.20494,0.2383052 0.20971,0.090556 0.53381,0.090556 0.33839,0 0.815,-0.1334509 0.48138,-0.138217 0.8865,-0.3812882 z m 6.20947,-2.3878178 0.17635,-0.1906441 h 1.14386 q 0.32887,0 0.44325,0.1048542 0.11915,0.1000882 0.11915,0.2859662 0,0.2812001 -0.27166,0.4766104 -0.15252,0.1096203 -0.49568,0.1096203 h -0.16681 l -0.75781,3.5555131 q -0.10962,0.5052068 -0.40512,0.8864948 -0.29073,0.386055 -0.80547,0.667255 -0.51474,0.2812 -1.07238,0.2812 h -1.10573 q -0.3241,0 -0.44325,-0.100088 -0.11439,-0.100088 -0.11439,-0.285966 0,-0.295499 0.2812,-0.490909 0.14775,-0.100088 0.48138,-0.100088 h 1.07714 q 0.44801,0 0.74828,-0.243071 0.30026,-0.238306 0.38129,-0.6148278 l 0.10008,-0.4766103 q -0.36699,0.2097086 -0.72921,0.3145628 -0.35746,0.1048543 -0.71015,0.1048543 -0.8579,0 -1.38217,-0.5052069 -0.5195,-0.5099731 -0.5195,-1.2820818 0,-0.691085 0.37652,-1.3583395 0.38129,-0.6672545 1.07237,-1.0676072 0.69585,-0.4051187 1.44413,-0.4051187 0.3098,0 0.55764,0.076258 0.2526,0.071492 0.57669,0.2573692 z m -1.93503,3.3029096 q 0.65772,0 1.16769,-0.4909086 0.50997,-0.4956748 0.50997,-1.1152682 0,-0.4432476 -0.30979,-0.7482782 -0.3098,-0.3050307 -0.77688,-0.3050307 -0.65772,0 -1.16769,0.5004409 -0.50998,0.4956747 -0.50998,1.0962038 0,0.4575459 0.30503,0.7625765 0.3098,0.3002645 0.78165,0.3002645 z m 7.42006,-5.3475679 -0.21924,1.0342444 h -1.16293 l 0.21924,-1.0342444 z m -0.25737,1.8540142 -0.71491,3.3505706 h 1.17722 q 0.3241,0 0.43849,0.1000882 0.11915,0.1000882 0.11915,0.2859662 0,0.2954984 -0.28597,0.4909086 -0.14298,0.1000882 -0.48138,0.1000882 h -3.32674 q -0.32409,0 -0.44324,-0.1000882 -0.11439,-0.1048542 -0.11439,-0.2859662 0,-0.2954984 0.27643,-0.4861425 0.15252,-0.1048543 0.49091,-0.1048543 h 1.17246 l 0.50521,-2.3735195 h -0.78641 q -0.32409,0 -0.44324,-0.1000881 -0.11439,-0.1048543 -0.11439,-0.2859662 0,-0.2859662 0.27167,-0.4813765 0.14775,-0.1096203 0.49567,-0.1096203 z m 4.15528,0 -0.0429,0.3288611 q 0.32886,-0.2478374 0.62436,-0.3526917 0.2955,-0.1048542 0.68155,-0.1048542 0.74828,0 1.13433,0.3431594 0.38606,0.3383934 0.38606,0.8864952 0,0.2001764 -0.0477,0.4337154 l -0.38606,1.8158854 q 0.2812,0 0.39559,0.1048543 0.11439,0.1000882 0.11439,0.2812001 0,0.2954984 -0.2812,0.4909086 -0.14775,0.1000882 -0.48615,0.1000882 h -0.88173 q -0.32409,0 -0.44324,-0.1000882 -0.11439,-0.1048542 -0.11439,-0.2859662 0,-0.2383051 0.19064,-0.414651 0.19541,-0.1811119 0.52904,-0.1763458 l 0.39082,-1.844482 q 0.0238,-0.1143865 0.0238,-0.2144746 0,-0.1858781 -0.14298,-0.2954984 -0.19541,-0.1477492 -0.58146,-0.1477492 -0.33363,0 -0.6196,0.1286847 -0.2812,0.1286848 -0.76734,0.5576341 l -0.38606,1.8158854 q 0.38606,0 0.48615,0.081024 0.13821,0.1143865 0.13821,0.3050306 0,0.2954984 -0.2812,0.4909086 -0.14774,0.1000882 -0.48614,0.1000882 h -1.1105 q -0.3241,0 -0.44325,-0.1000882 -0.11438,-0.1048542 -0.11438,-0.2859662 0,-0.3050306 0.29549,-0.5004408 0.14299,-0.090556 0.53857,-0.090556 l 0.50521,-2.3735195 q -0.2812,0 -0.40035,-0.1048542 -0.11439,-0.1048543 -0.11439,-0.2812001 0,-0.2859662 0.27167,-0.4813765 0.15251,-0.1096203 0.49567,-0.1096203 z m 7.52969,0.1906441 0.17634,-0.1906441 h 1.14387 q 0.32886,0 0.44324,0.1048542 0.11916,0.1000882 0.11916,0.2859662 0,0.2812001 -0.27167,0.4766104 -0.15252,0.1096203 -0.49568,0.1096203 h -0.16681 l -0.75781,3.5555131 q -0.10962,0.5052068 -0.40512,0.8864948 -0.29073,0.386055 -0.80547,0.667255 -0.51474,0.2812 -1.07237,0.2812 h -1.10574 q -0.32409,0 -0.44325,-0.100088 -0.11438,-0.100088 -0.11438,-0.285966 0,-0.295499 0.2812,-0.490909 0.14775,-0.100088 0.48137,-0.100088 h 1.07714 q 0.44802,0 0.74828,-0.243071 0.30027,-0.238306 0.38129,-0.6148278 l 0.10009,-0.4766103 q -0.36699,0.2097086 -0.72922,0.3145628 -0.35745,0.1048543 -0.71015,0.1048543 -0.85789,0 -1.38217,-0.5052069 -0.5195,-0.5099731 -0.5195,-1.2820818 0,-0.691085 0.37652,-1.3583395 0.38129,-0.6672545 1.07237,-1.0676072 0.69586,-0.4051187 1.44413,-0.4051187 0.3098,0 0.55764,0.076258 0.2526,0.071492 0.5767,0.2573692 z m -1.93504,3.3029096 q 0.65772,0 1.16769,-0.4909086 0.50998,-0.4956748 0.50998,-1.1152682 0,-0.4432476 -0.3098,-0.7482782 -0.3098,-0.3050307 -0.77688,-0.3050307 -0.65772,0 -1.16769,0.5004409 -0.50997,0.4956747 -0.50997,1.0962038 0,0.4575459 0.30503,0.7625765 0.30979,0.3002645 0.78164,0.3002645 z"
           id="text1"
           inkscape:label="Staging"
           transform="matrix(52.430234,0,0,52.430234,-2513.0972,1274.1716)"
           aria-label="Staging" /></g><g
         id="g5"
         transform="matrix(1.152136,0,0,1.152136,-441.08627,-1568.7588)"
         inkscape:label="Dev"
         style="display:inline;fill:#ffff00"><text
           xml:space="preserve"
           transform="matrix(52.430234,0,0,52.430234,-2513.0972,1274.1716)"
           id="text5"
           style="font-size:9.76098px;font-family:'Courier New';-inkscape-font-specification:'Courier New';letter-spacing:-0.22px;writing-mode:lr-tb;direction:ltr;white-space:pre;shape-inside:url(#rect12);display:none;fill:#ffff00;fill-opacity:1;stroke:none;stroke-width:1.13386"
           inkscape:label="Dev"><tspan
             x="131.77949"
             y="9.4351008"
             id="tspan4"><tspan
               style="font-style:italic;font-weight:bold;-inkscape-font-specification:'Courier New Bold Italic';direction:rtl"
               id="tspan3">Dev</tspan></tspan></text><path
           style="font-style:italic;font-weight:bold;font-size:9.76098px;font-family:'Courier New';-inkscape-font-specification:'Courier New Bold Italic';letter-spacing:-0.22px;direction:rtl;white-space:pre;stroke-width:1.13386"
           d="m 133.07587,8.4580496 0.81023,-3.8224149 q -0.2812,0 -0.39558,-0.1048542 -0.11439,-0.1048543 -0.11439,-0.2859662 0,-0.2907323 0.27643,-0.4861426 0.15252,-0.1048543 0.49091,-0.1048543 l 2.04466,0.00477 q 1.07238,0 1.65384,0.7911732 0.38605,0.5242714 0.38605,1.3631056 0,0.276434 -0.0715,0.6052951 l -0.10009,0.4670781 q -0.13345,0.6195934 -0.44324,1.1009699 -0.3098,0.4813764 -0.72922,0.786407 -0.41465,0.3050307 -0.74828,0.4480138 -0.5052,0.2144746 -1.25348,0.2144746 h -1.9684 q -0.3241,0 -0.44325,-0.1000882 -0.11439,-0.1048542 -0.11439,-0.2859662 0,-0.2430712 0.19542,-0.4194171 0.19541,-0.1763458 0.52427,-0.1715797 z m 0.97705,0 h 1.03901 q 0.60529,0 0.99135,-0.2049424 0.38605,-0.2097086 0.63866,-0.5481019 0.25737,-0.3383934 0.36699,-0.8483664 l 0.0953,-0.462312 q 0.0477,-0.2240069 0.0477,-0.4051188 0,-0.6338918 -0.34793,-0.9913495 -0.34792,-0.3622239 -0.98658,-0.3622239 h -1.03424 z m 9.1025,-0.691085 h -4.0083 q 0.0667,0.3765222 0.40036,0.6148274 0.33362,0.233539 1.00088,0.233539 0.55287,0 1.50132,-0.233539 0.39559,-0.095322 0.54334,-0.095322 0.15728,0 0.26213,0.1048543 0.10486,0.1000881 0.10486,0.2669018 0,0.2430712 -0.21924,0.4337154 -0.21448,0.185878 -1.01995,0.3431594 -0.80547,0.1572814 -1.45366,0.1572814 -1.01995,0 -1.57758,-0.509973 -0.55287,-0.5147392 -0.55287,-1.3106785 0,-0.6624883 0.40035,-1.3297428 0.40512,-0.6672545 1.14863,-1.062841 0.74828,-0.4003527 1.53469,-0.4003527 0.92462,0 1.49655,0.509973 0.5767,0.5099731 0.5767,1.4250649 0,0.1954103 -0.0477,0.4384815 z m -0.87697,-0.9770512 q -0.12868,-0.4003526 -0.44801,-0.6148273 -0.31933,-0.2192407 -0.81977,-0.2192407 -0.50044,0 -0.90556,0.2097085 -0.40512,0.2049424 -0.71968,0.6243595 z m 3.96464,1.4584277 1.51086,-2.163811 q -0.40036,0 -0.50044,-0.081024 -0.14299,-0.1143865 -0.14299,-0.3050306 0,-0.2907323 0.27644,-0.4861426 0.15251,-0.1048542 0.49091,-0.1048542 h 1.33927 q 0.3241,0 0.43848,0.1048542 0.11915,0.1000882 0.11915,0.2859662 0,0.2812001 -0.2669,0.4766104 -0.15251,0.1096203 -0.50044,0.1096203 h -0.16205 l -2.34492,3.3505707 h -1.01994 l -0.92463,-3.3505707 h -0.13822 q -0.32409,0 -0.44324,-0.1000881 -0.11439,-0.1048543 -0.11439,-0.2859662 0,-0.2907323 0.27643,-0.4861426 0.14775,-0.1048542 0.49091,-0.1048542 h 1.31068 q 0.3241,0 0.43848,0.1048542 0.11916,0.1000882 0.11916,0.2859662 0,0.1572814 -0.11439,0.319329 -0.10962,0.1620475 -0.27167,0.2240068 -0.11915,0.042895 -0.47184,0.042895 z"
           id="text12"
           inkscape:label="Dev"
           transform="matrix(52.430234,0,0,52.430234,-2513.0972,1274.1716)"
           aria-label="Dev" /></g></g></g></svg>
